<svg xmlns="http://www.w3.org/2000/svg" viewBox="0 0 60 80" width="60" height="80">
  <!-- Bill Cipher -->
  <!-- Main triangle body (yellow) -->
  <polygon points="30,5 5,70 55,70" fill="#FFD700" stroke="#000" stroke-width="2"/>
  <!-- Brick pattern -->
  <line x1="15" y1="45" x2="45" y2="45" stroke="#DAA520" stroke-width="1"/>
  <line x1="12" y1="55" x2="48" y2="55" stroke="#DAA520" stroke-width="1"/>
  <line x1="9" y1="65" x2="51" y2="65" stroke="#DAA520" stroke-width="1"/>
  <line x1="25" y1="45" x2="22" y2="55" stroke="#DAA520" stroke-width="1"/>
  <line x1="35" y1="45" x2="38" y2="55" stroke="#DAA520" stroke-width="1"/>
  <line x1="18" y1="55" x2="15" y2="65" stroke="#DAA520" stroke-width="1"/>
  <line x1="30" y1="55" x2="30" y2="65" stroke="#DAA520" stroke-width="1"/>
  <line x1="42" y1="55" x2="45" y2="65" stroke="#DAA520" stroke-width="1"/>
  <!-- Single eye -->
  <ellipse cx="30" cy="35" rx="10" ry="12" fill="white" stroke="#000" stroke-width="1.5"/>
  <ellipse cx="30" cy="35" rx="5" ry="6" fill="#000"/>
  <!-- Eye slit pupil -->
  <ellipse cx="30" cy="35" rx="2" ry="5" fill="#333"/>
  <!-- Top hat -->
  <rect x="20" y="0" width="20" height="5" fill="#000"/>
  <rect x="23" y="-12" width="14" height="14" fill="#000"/>
  <!-- Hat band -->
  <rect x="23" y="-2" width="14" height="2" fill="#FFD700"/>
  <!-- Bow tie -->
  <polygon points="25,50 30,55 35,50 30,45" fill="#000"/>
  <!-- Arms (thin black) -->
  <line x1="12" y1="50" x2="0" y2="40" stroke="#000" stroke-width="2"/>
  <line x1="48" y1="50" x2="60" y2="40" stroke="#000" stroke-width="2"/>
  <!-- Hands -->
  <circle cx="0" cy="40" r="3" fill="#000"/>
  <circle cx="60" cy="40" r="3" fill="#000"/>
  <!-- Legs (thin black) -->
  <line x1="20" y1="70" x2="15" y2="80" stroke="#000" stroke-width="2"/>
  <line x1="40" y1="70" x2="45" y2="80" stroke="#000" stroke-width="2"/>
</svg>